<svg xmlns="http://www.w3.org/2000/svg" viewBox="300 175 240 242">
  <g>
    <path fill="#F39200"
      d="M378.81,416.47c-0.43,0-0.87,0-1.3-0.02c-18.75-0.66-33.99-16.77-33.99-35.91v-4.64
      c0-0.46-0.37-0.83-0.83-0.83h-4.35c-9.9,0-19.58-3.73-26.43-10.88c-6.64-6.94-10.11-16.04-9.77-25.67
      c0.67-18.74,16.78-33.99,35.91-33.99h4.63c0.85,0,1.53,0.68,1.53,1.53v12.27c0,0.85-0.68,1.53-1.53,1.53h-4.63
      c-10.97,0-20.21,8.61-20.58,19.2c-0.2,5.61,1.89,10.91,5.88,14.88c3.86,3.84,9.21,5.79,14.66,5.79h11.65c5.08,0,9.2,4.12,9.2,9.2
      v11.6c0,10.97,8.61,20.21,19.2,20.58c5.62,0.2,10.91-1.88,14.87-5.86c3.85-3.86,5.8-9.22,5.8-14.67v-74.54
      c0-0.85,0.69-1.53,1.54-1.53h12.26c0.85,0,1.54,0.68,1.54,1.53v74.26c0,9.69-3.59,19.17-10.49,25.98
      C396.9,412.88,388.13,416.47,378.81,416.47" />
    <path fill="#0066b3"
      d="M539.78,339.78c0,0.43,0,0.87-0.02,1.3c-0.67,18.74-16.78,33.99-35.91,33.99h-4.64
      c-0.46,0-0.83,0.37-0.83,0.83v4.35c0,9.9-3.73,19.58-10.88,26.43c-6.94,6.64-16.05,10.11-25.67,9.77
      c-18.74-0.67-33.99-16.78-33.99-35.91v-4.63c0-0.85,0.68-1.54,1.53-1.54h12.27c0.85,0,1.53,0.69,1.53,1.54v4.63
      c0,10.97,8.61,20.2,19.2,20.58c5.61,0.2,10.91-1.89,14.88-5.88c3.84-3.86,5.79-9.21,5.79-14.65v-11.66c0-5.08,4.12-9.2,9.2-9.2
      h11.6c10.97,0,20.21-8.61,20.58-19.2c0.2-5.62-1.89-10.91-5.86-14.86c-3.86-3.85-9.22-5.81-14.67-5.81h-74.54
      c-0.85,0-1.53-0.69-1.53-1.54v-12.26c0-0.85,0.68-1.54,1.53-1.54h74.26c9.69,0,19.17,3.59,25.98,10.49
      C536.19,321.68,539.78,330.45,539.78,339.78" />
    <path fill="#F39200"
      d="M463.08,178.81c0.43,0,0.87,0.01,1.3,0.02c18.74,0.66,33.99,16.77,33.99,35.91v4.64
      c0,0.46,0.37,0.83,0.83,0.83h4.35c9.9,0,19.58,3.73,26.43,10.88c6.64,6.94,10.11,16.05,9.77,25.67
      c-0.67,18.75-16.78,33.99-35.91,33.99h-4.63c-0.84,0-1.53-0.68-1.53-1.53v-12.27c0-0.85,0.69-1.53,1.53-1.53h4.63
      c10.97,0,20.21-8.61,20.59-19.2c0.2-5.61-1.9-10.91-5.88-14.88c-3.86-3.84-9.21-5.79-14.66-5.79h-11.65c-5.08,0-9.2-4.12-9.2-9.2
      v-11.6c0-10.97-8.61-20.21-19.2-20.58c-5.62-0.2-10.91,1.88-14.87,5.86c-3.85,3.86-5.8,9.22-5.8,14.67v74.54
      c0,0.85-0.69,1.53-1.54,1.53h-12.26c-0.85,0-1.54-0.68-1.54-1.53v-74.26c0-9.69,3.59-19.17,10.49-25.98
      C444.99,182.39,453.76,178.81,463.08,178.81" />
    <path fill="#0066b3"
      d="M302.11,255.5c0-0.43,0.01-0.86,0.02-1.3c0.66-18.74,16.77-33.99,35.91-33.99h4.64
      c0.46,0,0.83-0.37,0.83-0.83v-4.35c0-9.9,3.73-19.58,10.88-26.43c6.94-6.64,16.05-10.11,25.67-9.77
      c18.75,0.67,33.99,16.78,33.99,35.91v4.63c0,0.85-0.68,1.54-1.53,1.54h-12.27c-0.85,0-1.53-0.69-1.53-1.54v-4.63
      c0-10.97-8.61-20.2-19.2-20.58c-5.61-0.2-10.91,1.89-14.87,5.88c-3.84,3.86-5.79,9.21-5.79,14.65v11.66c0,5.08-4.12,9.2-9.2,9.2
      h-11.6c-10.97,0-20.21,8.61-20.58,19.2c-0.2,5.62,1.89,10.91,5.86,14.87c3.86,3.84,9.22,5.8,14.67,5.8h74.54
      c0.85,0,1.53,0.69,1.53,1.54v12.26c0,0.85-0.68,1.54-1.53,1.54h-74.26c-9.69,0-19.17-3.59-25.98-10.49
      C305.7,273.59,302.11,264.82,302.11,255.5" />
  </g>
</svg>